<svg xmlns="http://www.w3.org/2000/svg" viewBox="0 0 165.44 45.88"><defs><style>.cls-1{fill:#172a3a;}.cls-2{fill:#fff;}</style></defs><title>logo (3)</title><g id="Layer_2" data-name="Layer 2"><g id="Layer_1-2" data-name="Layer 1"><g id="logo"><rect class="cls-1" width="165.44" height="45.88"/><rect class="cls-2" x="101.24" y="12.93" width="2.59" height="16.08"/><rect class="cls-2" x="102.76" y="14.37" width="2.59" height="5.53" transform="translate(86.91 121.19) rotate(-90)"/><path class="cls-2" d="M57.16,13H49.21A4.05,4.05,0,0,0,45.16,17v8a4,4,0,0,0,4.05,4h6.07V26.42H49.21A1.45,1.45,0,0,1,47.75,25V17a1.46,1.46,0,0,1,1.46-1.46h7.95A1.46,1.46,0,0,1,58.62,17V29h2.59V17A4.06,4.06,0,0,0,57.16,13Z"/><rect class="cls-2" x="52.7" y="22.8" width="2.59" height="6.21"/><path class="cls-2" d="M67.27,29h3.1a3.93,3.93,0,0,0,4-3.8V19.89c0-1.11,0-3.75,0-3.75l-2.55,0v5.6h0v3.5a1.42,1.42,0,0,1-1.46,1.37h-3.1a1.41,1.41,0,0,1-1.46-1.37V16.1H63.22v9.11A3.93,3.93,0,0,0,67.27,29Z"/><path class="cls-2" d="M83.58,15.9H80.47a4,4,0,0,0-4,4v8a4.89,4.89,0,0,0,0,1.06L79,29V26h0v-6a1.46,1.46,0,0,1,1.45-1.46h3.11A1.47,1.47,0,0,1,85,19.94V29h2.58V19.94A4,4,0,0,0,83.58,15.9Z"/><rect class="cls-2" x="83.56" y="24.94" width="2.59" height="5.53" transform="translate(57.15 112.56) rotate(-90)"/><path class="cls-2" d="M95.21,15.9H93.68a4,4,0,0,0-4,4v5c0,1.18,0,4,0,4l2.54,0V23h0V19.94a1.47,1.47,0,0,1,1.46-1.46h1.53a1.46,1.46,0,0,1,1.45,1.46v1h2.59v-1A4,4,0,0,0,95.21,15.9Z"/><path class="cls-2" d="M112.42,29h3.1a3.93,3.93,0,0,0,4-3.8v-.8c0-1.11,0-3.75,0-3.75l-2.55,0v1.09h0v3.5a1.41,1.41,0,0,1-1.46,1.37h-3.1A1.42,1.42,0,0,1,111,25.21v-4.6h-2.59v4.6A3.93,3.93,0,0,0,112.42,29Z"/><path class="cls-2" d="M115.52,15.87h-3.1a3.93,3.93,0,0,0-4,3.8v.8c0,1.12,0,3.76,0,3.76l2.54,0V23.17h0v-3.5a1.42,1.42,0,0,1,1.46-1.37h3.1A1.41,1.41,0,0,1,117,19.67v4.6h2.59v-4.6A3.93,3.93,0,0,0,115.52,15.87Z"/></g></g></g></svg>